<?xml version="1.0" encoding="UTF-8"?>
<svg id="Capa_1" xmlns="http://www.w3.org/2000/svg" version="1.1" xmlns:xlink="http://www.w3.org/1999/xlink" viewBox="0 0 861.9 162.3">
  <!-- Generator: Adobe Illustrator 29.0.0, SVG Export Plug-In . SVG Version: 2.1.0 Build 186)  -->
  <defs>
    <style>
      .st0, .st1, .st2 {
        fill: #c90707;
      }

      .st3 {
        fill: none;
      }

      .st1 {
        opacity: .7;
      }

      .st1, .st2, .st4 {
        isolation: isolate;
      }

      .st2, .st5 {
        opacity: .8;
      }

      .st6 {
        clip-path: url(#clippath);
      }
    </style>
    <clipPath id="clippath">
      <rect class="st3" x="-1595.2" y="598.9" width="1920" height="929.9"/>
    </clipPath>
  </defs>
  <g class="st5">
    <g>
      <path class="st2" d="M8.6,78.4c2.8,3.5,8.3,10.5,11.1,14-.9,6.2-11,8.1-18.3,13.5-4.5,8.9,2.9,25.7,6.6,23,16.5-1.1,38.4-17.3,43.9-32.4,3.7-2.7-11.1-14-24-15.7-3.6,2.7-7.3,5.4-11,8.1"/>
      <path class="st0" d="M316.9,131.7c2.3-1.7,4.4-3.5,6.5-5.4-13-4.5-25-12.4-42.4-18.2-6.4-.8-1.8,12.4,3.8,19.4-17.2,8.1-22.1,22-32.8,30.9,19.6-10.1,39.9-24.6,59.4-33.8l5.5,7h0Z"/>
      <path class="st1" d="M603.7,47.9c-10.4-2.8-20.9-5.7-31.5-8.5-73-9.4-148.7-10.9-210,26.2-.5,1.5-1.5,2.8-2.6,3.7,79.1-14.9,155.6-32.5,236.8-16,1.6,2,8,.5,15-1.6-2.3-2-4.8-3.5-7.7-3.8h0Z"/>
      <path class="st2" d="M756.3,79.8c-2.8-3.5-8.3-10.5-8.3-10.5-38.5,17.2-72.5,3.5-118.4,4-5-.6-10.1-14.6-18.1-21.6-7,2-13.5,3.6-15,1.6-81.2-16.5-157.8,1.1-236.8,16-3,2.4-7,2.7-4.5.8,0,0-21,10-29.4-.6,12.9,1.6,22.9-.3,36.7-4.8,0,.3-.1.6-.2.9,61.3-37.2,137-35.6,210-26.2-56.5-15.1-114.9-27.7-175.2-11.3-17.4,7.3-37.6,11.1-54.1,12.1-25.7-3.2-44,10.2-68.8.8C249.3,31.5,234.4-2.1,201.3.1c-10.1,1.9-11.8,14.3-21.9,16.2-10.1,1.9-24-15.7-27.6-13-20.2,3.8-35.3,20.5-53.9,34.3-7.3,5.4-17.4,7.3-18.3,13.5-1.8,12.4,3.8,19.4-10,24,5.6,7,18.4,8.7,17.5,14.9-5.8,8.2-15.7,11.2-20.7,17.8,7,2.1,14.1,3.6,20.9,5.2,2.6.1,5.2.7,7.4,1.9,4.3,1.2,8.5,2.7,12.4,4.6,1.3-.9,2.1-1.5,2.1-1.5,6.3,5.3,11.5,9.3,16.7,11.9,6-3.6,17.5,3.8,21.5-3.9-.4,3-.2,5.3.4,7.2,3.6-.4,7.6-1.3,12-2.5,2.8,3.5,8.3,10.5,11.1,14,3.7-2.7,11-8.1,11-8.1,5.1,3.4,7.6,8.7,9.7,14.3,3.9-.8,8-2.4,12-5.3,3.4,6.3,8.7,10.8,14.8,13.9,6,0,11.6.5,16.5,2.6,4.3,0,8.5-.2,12.4-1.5,1.5-.7,3.1-1.6,4.6-2.3,10.7-8.8,15.6-22.7,32.8-30.8-5.5-7-10.2-20.2-3.8-19.5,17.3,5.7,29.4,13.7,42.4,18.2,7.9-7.1,14.8-14.7,22.8-16.2,0,0,3.7,4.6,6.5,8.3,1.9-.6,3.8-1.2,5.6-1.7,10.7-10.4,20.8-14.3,33.3-8,10.3-2,20.8-3.6,31.2-4.8,3.5-2.9,7.1-5.6,10.4-8.1,3.7-7.3,11.8.8,16.1,5.9,3.1-.2,6.3-.3,9.4-.4,9.2-5.5,19.2-11.8,28.6-14.7,3-3.8,5.6-8.6,8.1-14.5-.6,4.7-1.3,9.3-4.7,13.6,9.3-2,17.9.2,24.1,11,3.7-2.7,7.3-5.4,7.3-5.4,1.2,1.5,2.9,3.7,4.8,6,14.6-6.4,29.4-17.5,42.9-19,3.7-2.7-14.6,10.8-2.6,18.6,12,7.8,25.7,3.3,38.6,4.9,4.5.6,8.6,2,12.7,3.6,4.3.4,8.6.5,13-.3,74.3-15.9,153.2-18.5,230.4-8.8-34.9-7.6-67.1-11.7-105.7-16.5h0Z"/>
    </g>
  </g>
  <g class="st6">
    <image class="st4" width="733" height="916" transform="translate(-1693.2 -299.8) scale(2.8)" xlink:href="color_navidad-1.png"/>
  </g>
</svg>