<?xml version="1.0" encoding="UTF-8"?>
<svg id="Capa_1" data-name="Capa 1" xmlns="http://www.w3.org/2000/svg" viewBox="0 0 62.58 66.61">
  <path d="M40.47,61.99c6.64-8.47,15.38-23.67,16-34.53,1.07-19.07-16.23-37.34-18.98-7.96-.46,4.86,2.05,14.45-2.98,16.06-7.63,2.45-7.97-9.99-10.61-14.5-3.81-6.49-16.32-11.34-17.45-.58s7.19,19.59,14.56,26.48c2.46,2.3,17.79,14.99,19.47,15.03-1.31,1.68-3.57,5.12-6.09,4.56-1.28-.28-17.74-13.97-19.92-16.04C6.47,42.94-4.02,31.47,1.58,19.6c3.59-7.62,14.23-10.54,21.94-8.16,1.87.58,3.56,2.69,5,4.02,1.76,1.63,1.37,4.16,3.94,3.53-.8-14.97,19.46-27.92,27.52-11.02,4.32,9.07,2.68,21.15-.75,30.28-2.1,5.59-12.52,23.86-18.76,23.74Z"/>
</svg>