<?xml version="1.0" encoding="UTF-8"?>
<svg id="Capa_1" xmlns="http://www.w3.org/2000/svg" viewBox="0 0 123.26 135">
  <defs>
    <style>
      .cls-1 {
        fill: #fd866e;
      }
    </style>
  </defs>
  <path class="cls-1" d="M5.87,64.04v62.16c0,4.84,3.96,8.8,8.8,8.8h93.91c4.84,0,8.8-3.96,8.8-8.8v-62.16c3.4-1.2,5.87-4.43,5.87-8.28v-11.74c0-4.84-3.96-8.8-8.8-8.8h-19.66c1.73-.97,3.35-2.08,4.78-3.4,4.05-3.79,6.1-8.54,6.1-14.2S101.37,0,88.07,0s-22.04,18.23-26.41,29.32C57.29,18.23,48.16,0,35.25,0s-17.61,11.86-17.61,17.61,2.05,10.42,6.1,14.2c1.41,1.32,3.05,2.44,4.78,3.4H8.8c-4.84,0-8.8,3.96-8.8,8.8v11.74c0,3.82,2.47,7.04,5.87,8.28ZM11.74,126.2v-61.63h35.22v64.57H14.67c-1.61,0-2.93-1.32-2.93-2.93ZM49.89,41.09h2.67c1.76.09,3.35.12,4.7.12,2.32,0,3.84-.09,4.37-.12.53.03,2.05.12,4.37.12,1.35,0,2.96-.03,4.7-.12h2.67v17.61h-23.48v-17.61ZM52.83,129.13v-64.57h17.61v64.57h-17.61ZM111.52,126.2c0,1.61-1.32,2.93-2.93,2.93h-32.28v-64.57h35.22v61.63ZM117.39,44.02v11.74c0,1.61-1.32,2.93-2.93,2.93h-35.22v-17.61h35.22c1.61,0,2.93,1.32,2.93,2.93ZM88.04,5.87c11.03,0,11.74,11.62,11.74,11.74,0,3.99-1.38,7.25-4.23,9.89-6.16,5.72-17.46,7.34-25.27,7.72h-4.58c3.82-10.71,12.5-29.35,22.36-29.35h-.03ZM23.48,17.61s.7-11.74,11.74-11.74c9.86,0,18.55,18.64,22.36,29.35h-4.7c-7.81-.38-19.02-2-25.15-7.72-2.85-2.64-4.23-5.9-4.23-9.89h-.03ZM5.87,44.02c0-1.61,1.32-2.93,2.93-2.93h35.22v17.61H8.8c-1.61,0-2.93-1.32-2.93-2.93v-11.74Z"/>
</svg>