<?xml version="1.0" encoding="UTF-8"?>
<svg id="Capa_1" xmlns="http://www.w3.org/2000/svg" viewBox="0 0 124.26 135">
  <defs>
    <style>
      .cls-1 {
        fill: #fd866e;
      }
    </style>
  </defs>
  <g id="Idea">
    <path class="cls-1" d="M62.21,24.65h-.14c-10.97,0-21.29,4.28-29.07,12.05-7.81,7.8-12.12,18.18-12.12,29.21s4.03,20.67,11.35,28.33c3.67,3.84,5.69,8.59,5.69,13.37v3.48c0,4.75,3.86,8.61,8.61,8.61h31.21c4.75,0,8.61-3.86,8.61-8.61v-3.48c0-4.78,2.02-9.53,5.69-13.37,7.32-7.66,11.35-17.72,11.35-28.33s-4.3-21.41-12.12-29.21c-7.78-7.77-18.1-12.05-29.06-12.05ZM86.14,88.6c-5.13,5.37-7.96,12.11-7.96,19v3.48c0,.25-.2.45-.45.45h-31.21c-.25,0-.45-.2-.45-.45v-3.48c0-6.89-2.83-13.64-7.96-19-5.86-6.13-9.09-14.2-9.09-22.7s3.45-17.17,9.72-23.43c6.24-6.23,14.52-9.66,23.33-9.66.05,0,.09,0,.11,0,8.79,0,17.07,3.43,23.31,9.66,6.27,6.26,9.72,14.58,9.72,23.43,0,8.5-3.22,16.56-9.08,22.7Z"/>
    <path class="cls-1" d="M56.51,43.45c-8.34,2.07-14.8,8.57-16.85,16.93-.53,2.18.8,4.39,2.99,4.93.32.08.65.12.97.12,1.83,0,3.5-1.25,3.95-3.11,1.3-5.33,5.58-9.64,10.9-10.95,2.18-.54,3.51-2.75,2.97-4.94-.54-2.18-2.75-3.5-4.94-2.97Z"/>
    <path class="cls-1" d="M73.25,126.85h-22.24c-2.25,0-4.08,1.83-4.08,4.08s1.83,4.08,4.08,4.08h22.24c2.25,0,4.08-1.83,4.08-4.08s-1.83-4.08-4.08-4.08Z"/>
    <path class="cls-1" d="M62.13,16.14c2.25,0,4.08-1.83,4.08-4.08v-7.98c0-2.25-1.83-4.08-4.08-4.08s-4.08,1.83-4.08,4.08v7.98c0,2.25,1.83,4.08,4.08,4.08Z"/>
    <path class="cls-1" d="M120.19,53.5h-7.98c-2.25,0-4.08,1.83-4.08,4.08s1.83,4.08,4.08,4.08h7.98c2.25,0,4.08-1.83,4.08-4.08s-1.82-4.08-4.08-4.08Z"/>
    <path class="cls-1" d="M12.05,53.5h-7.98c-2.25,0-4.08,1.83-4.08,4.08s1.83,4.08,4.08,4.08h7.98c2.25,0,4.08-1.83,4.08-4.08s-1.83-4.08-4.08-4.08Z"/>
    <path class="cls-1" d="M27.06,28.27c.8.8,1.84,1.2,2.89,1.2s2.09-.4,2.89-1.2c1.59-1.59,1.59-4.17,0-5.76l-5.65-5.65c-1.59-1.59-4.18-1.59-5.77,0-1.59,1.59-1.59,4.17,0,5.76l5.64,5.65Z"/>
    <path class="cls-1" d="M97.08,16.86l-5.64,5.64c-1.59,1.59-1.59,4.17,0,5.76.8.8,1.84,1.2,2.89,1.2s2.09-.4,2.89-1.2l5.64-5.64c1.59-1.59,1.59-4.17,0-5.76s-4.18-1.59-5.77,0Z"/>
  </g>
</svg>