<?xml version="1.0" encoding="UTF-8"?>
<svg id="Capa_1" xmlns="http://www.w3.org/2000/svg" viewBox="0 0 103.95 135">
  <defs>
    <style>
      .cls-1 {
        fill: #fd866e;
      }
    </style>
  </defs>
  <path class="cls-1" d="M94.59,3.54c-3.35-1.01-6.9-.66-10,1.01-3.1,1.66-5.37,4.43-6.39,7.78l-9.65,29.6-7.26-31.68c-.79-3.43-2.87-6.35-5.86-8.23-2.98-1.87-6.5-2.46-9.91-1.68-7.06,1.63-11.49,8.71-9.88,15.79l4.65,21.51c-1.91-1.08-4.11-1.7-6.45-1.7-5.53,0-10.27,3.44-12.21,8.3-2.29-1.94-5.25-3.1-8.48-3.1-7.25,0-13.16,5.9-13.16,13.16v36.37c0,24.45,19.82,44.34,44.19,44.34s44.19-19.89,44.19-44.34v-22.93l15-47.72s0-.02.01-.03c2.09-6.96-1.85-14.34-8.8-16.44ZM46.78,5.82c1.94-.45,3.95-.11,5.66.96,1.72,1.08,2.91,2.75,3.36,4.72l9.17,40.02h-15.93l-7.91-36.59s0-.02,0-.03c-.93-4.07,1.6-8.14,5.65-9.08ZM26.31,54.29v-5.15c0-4.17,3.38-7.57,7.53-7.57s7.53,3.4,7.53,7.57v2.38h-4.95c-4.4,0-7.98,3.59-7.98,8,0,4.95,1.96,9.44,5.15,12.75-4.04-.13-7.28-3.47-7.28-7.56v-10.42ZM5.62,64.71v-10.42c0-4.15,3.38-7.53,7.53-7.53s7.53,3.38,7.53,7.53v15.65c0,4.15-3.38,7.53-7.53,7.53s-7.53-3.38-7.53-7.53v-5.23ZM82.75,67.28v23.38c0,21.35-17.3,38.71-38.56,38.71S5.62,112.01,5.62,90.66v-9.95c2.14,1.5,4.73,2.38,7.53,2.38,5.54,0,10.28-3.44,12.22-8.3,2.29,1.94,5.24,3.11,8.47,3.11,2.06,0,4.07-.48,5.9-1.41,2.17.91,4.54,1.41,7.03,1.41h1.09c-7.07,5.24-11.66,13.66-11.66,23.14v5.19c0,1.55,1.26,2.81,2.81,2.81s2.81-1.26,2.81-2.81v-5.19c0-12.76,10.34-23.14,23.05-23.14,1.55,0,2.81-1.26,2.81-2.81s-1.26-2.81-2.81-2.81h-18.1c-2.01,0-3.92-.48-5.61-1.32-.16-.1-.33-.19-.5-.26-3.93-2.17-6.59-6.37-6.59-11.18,0-1.31,1.06-2.38,2.36-2.38h10.33s0,0,.01,0c0,0,0,0,.01,0h28.44c4.15,0,7.53,3.4,7.53,7.57v2.57h0ZM98.01,18.34l-12.14,38.63c-2.39-3.3-6.27-5.45-10.64-5.45h-3.88l12.22-37.47s.01-.04.02-.06c.58-1.93,1.88-3.52,3.67-4.48,1.78-.95,3.8-1.16,5.71-.58,3.97,1.2,6.23,5.43,5.04,9.42Z"/>
</svg>