<?xml version="1.0" encoding="UTF-8"?>
<svg id="Capa_1" xmlns="http://www.w3.org/2000/svg" viewBox="0 0 46.52 46.52">
  <defs>
    <style>
      .cls-1 {
        fill: #fff;
      }
    </style>
  </defs>
  <path class="cls-1" d="M23.27,11.32c-6.6,0-11.94,5.35-11.94,11.94s5.35,11.94,11.94,11.94,11.94-5.35,11.94-11.94-5.35-11.94-11.94-11.94h0ZM23.27,31c-4.28,0-7.75-3.47-7.75-7.75s3.47-7.75,7.75-7.75,7.75,3.47,7.75,7.75c0,4.28-3.47,7.75-7.75,7.75Z"/>
  <path class="cls-1" d="M32.85.15C28.57-.05,17.97-.04,13.69.15c-3.76.18-7.09,1.09-9.76,3.76C-.55,8.38.02,14.41.02,23.25s-.5,14.94,3.9,19.34c4.49,4.49,10.61,3.9,19.34,3.9s12.06,0,15.23-1.22c4.31-1.67,7.56-5.52,7.88-12.44.2-4.28.19-14.88,0-19.17-.38-8.17-4.77-13.12-13.52-13.52h0ZM39.63,39.64c-2.93,2.93-7,2.67-16.41,2.67s-13.58.14-16.41-2.7c-3.27-3.25-2.68-8.47-2.68-16.39,0-10.71-1.1-18.42,9.65-18.97,2.47-.09,3.2-.12,9.41-.12l.09.06c10.33,0,18.43-1.08,18.92,9.67.11,2.45.14,3.19.14,9.4,0,9.58.18,13.49-2.7,16.39h0Z"/>
  <circle class="cls-1" cx="35.68" cy="10.84" r="2.79"/>
</svg>